<svg width="88" height="50" viewBox="0 0 88 50" fill="none" xmlns="http://www.w3.org/2000/svg">
<g clip-path="url(#clip0_0_176)">
<path d="M85.16 46.93C85.16 46.93 85.12 47.02 85.07 47.02H82.07C82.07 47.02 81.99 46.99 81.98 46.95L81.27 43.47C80.89 41.63 79.23 40.3 77.32 40.3H10.4C8.48 40.3 6.82 41.63 6.45 43.47L5.74 46.95C5.74 46.95 5.7 47.02 5.65 47.02H2.66C2.66 47.02 2.57 46.98 2.57 46.93V36.1H72.71C73.42 36.1 73.99 35.54 73.99 34.84C73.99 34.14 73.42 33.58 72.71 33.58H2.57V27.99C2.57 26.34 5.59 23.82 14.07 21.7C22.01 19.72 32.59 18.63 43.86 18.63C55.13 18.63 65.71 19.72 73.65 21.7C82.13 23.81 85.15 26.33 85.15 27.99V33.58H78.19C77.48 33.58 76.91 34.14 76.91 34.84C76.91 35.54 77.49 36.1 78.19 36.1H85.15V46.93H85.16ZM42.58 12V16.12C33.43 16.19 24.76 16.97 17.59 18.35C16.79 17.84 16.3 16.97 16.3 16.03V12C16.3 10.47 17.57 9.23 19.14 9.23H39.74C41.3 9.23 42.58 10.47 42.58 12ZM71.42 12V16.03C71.42 16.98 70.93 17.84 70.13 18.35C62.96 16.96 54.29 16.19 45.14 16.12V12C45.14 10.47 46.41 9.23 47.98 9.23H68.58C70.14 9.23 71.41 10.47 71.41 12M8.06 3.94C8.06 3.15 8.72 2.51 9.52 2.51H78.2C79.01 2.51 79.66 3.15 79.66 3.94V20.89C78.15 20.33 76.37 19.78 74.28 19.26C73.88 19.16 73.48 19.06 73.07 18.97C73.66 18.12 73.98 17.1 73.98 16.03V12C73.98 9.09 71.56 6.71 68.58 6.71H47.98C46.33 6.71 44.85 7.44 43.86 8.58C42.87 7.44 41.39 6.71 39.74 6.71H19.14C16.16 6.71 13.73 9.08 13.73 12V16.03C13.73 17.1 14.06 18.12 14.65 18.97C14.24 19.07 13.83 19.16 13.44 19.26C11.35 19.78 9.57 20.33 8.06 20.89V3.94ZM82.23 21.98V3.94C82.23 1.77 80.42 0 78.2 0H9.53C7.31 0 5.5 1.77 5.5 3.94V21.98C1.12 24.09 0 26.29 0 27.99V46.93C0 48.36 1.19 49.53 2.66 49.53H5.65C6.91 49.53 8.01 48.65 8.26 47.44L8.97 43.96C9.11 43.29 9.71 42.81 10.4 42.81H77.32C78.01 42.81 78.62 43.29 78.75 43.96L79.46 47.44C79.71 48.65 80.8 49.53 82.07 49.53H85.07C86.53 49.53 87.73 48.36 87.73 46.93V27.99C87.73 26.29 86.61 24.09 82.24 21.98" fill="#1D5082"/>
</g>
<defs>
<clipPath id="clip0_0_176">
<rect width="87.73" height="49.52" fill="white"/>
</clipPath>
</defs>
</svg>
