<svg width="93" height="73" viewBox="0 0 93 73" fill="none" xmlns="http://www.w3.org/2000/svg">
<g clip-path="url(#clip0_0_170)">
<path d="M53.77 47.96H50.68H53.77ZM42.15 47.96H39.06H42.15ZM30.53 47.96H25.98V46.41C25.98 45.66 25.37 45.05 24.62 45.05C23.87 45.05 23.26 45.66 23.26 46.41V56.68H20.17V47.87C20.17 45.52 18.26 43.6 15.9 43.6C13.54 43.6 11.63 45.51 11.63 47.87V56.68H8.54V40.51H23.26V40.6C23.26 41.35 23.87 41.96 24.62 41.96C25.37 41.96 25.98 41.35 25.98 40.6V23.07H66.86V24.62C66.86 25.37 67.47 25.98 68.22 25.98C68.97 25.98 69.58 25.37 69.58 24.62V23.07H81.77L86.68 37.79H81.21V34.79C81.21 32.44 79.3 30.52 76.94 30.52C74.58 30.52 72.67 32.43 72.67 34.79V37.79H69.58V30.43C69.58 29.68 68.97 29.07 68.22 29.07C67.47 29.07 66.86 29.68 66.86 30.43V47.96H62.31M75.39 37.79V34.79C75.39 33.94 76.08 33.24 76.94 33.24C77.8 33.24 78.49 33.93 78.49 34.79V37.79H75.4H75.39ZM84.3 56.68H81.21V47.87C81.21 45.52 79.3 43.6 76.94 43.6C74.58 43.6 72.67 45.51 72.67 47.87V56.68H69.58V40.51H84.3V56.68ZM75.39 56.68V47.87C75.39 47.02 76.08 46.32 76.94 46.32C77.8 46.32 78.49 47.01 78.49 47.87V56.68H75.4H75.39ZM84.3 63.95H69.58V59.4H84.3V63.95ZM59.59 47.96H56.5H59.59ZM47.97 47.96H44.88H47.97ZM36.35 47.96H33.26H36.35ZM66.87 63.95H56.51V55.14C56.51 54.39 55.9 53.78 55.15 53.78H37.71C36.96 53.78 36.35 54.39 36.35 55.14V63.95H25.99V50.68H66.87V63.95ZM53.79 63.95H47.79V56.5H53.79V63.95ZM45.07 63.95H39.07V56.5H45.07V63.95ZM14.36 56.68V47.87C14.36 47.02 15.05 46.32 15.91 46.32C16.77 46.32 17.46 47.01 17.46 47.87V56.68H14.37H14.36ZM23.27 63.95H8.53V59.4H23.25V63.95H23.27ZM17.46 34.79V37.79H14.37V34.79C14.37 33.94 15.06 33.24 15.92 33.24C16.78 33.24 17.47 33.93 17.47 34.79M11.09 23.07H23.28V37.79H20.19V34.79C20.19 32.44 18.28 30.52 15.92 30.52C13.56 30.52 11.65 32.43 11.65 34.79V37.79H6.15L11.06 23.07H11.09ZM36.36 17.35V20.35H33.27V17.35C33.27 16.5 33.96 15.8 34.82 15.8C35.68 15.8 36.37 16.49 36.37 17.35M48 17.35V20.35H44.91V17.35C44.91 16.5 45.6 15.8 46.46 15.8C47.32 15.8 48.01 16.49 48.01 17.35M59.64 17.35V20.35H56.55V17.35C56.55 16.5 57.24 15.8 58.1 15.8C58.96 15.8 59.65 16.49 59.65 17.35M28.5 5.63H64.33L69.24 20.35H62.31V17.35C62.31 15 60.39 13.08 58.04 13.08C55.69 13.08 53.77 14.99 53.77 17.35V20.35H50.68V17.35C50.68 15 48.77 13.08 46.41 13.08C44.05 13.08 42.14 14.99 42.14 17.35V20.35H39.05V17.35C39.05 15 37.14 13.08 34.78 13.08C32.42 13.08 30.51 14.99 30.51 17.35V20.35H23.58L28.49 5.63H28.5ZM91.47 63.95H87.02V40.51H88.57C89.01 40.51 89.42 40.3 89.67 39.94C89.93 39.59 89.99 39.13 89.86 38.71L84.12 21.48V18.79C84.12 18.04 83.51 17.43 82.76 17.43C82.01 17.43 81.4 18.04 81.4 18.79V20.34H72.11L66.68 4.04V1.36C66.68 0.61 66.07 0 65.32 0C64.57 0 63.96 0.61 63.96 1.36V2.91H28.88V1.36C28.88 0.61 28.27 0 27.52 0C26.77 0 26.16 0.61 26.16 1.36V4.05L20.73 20.35H11.44V18.8C11.44 18.05 10.83 17.44 10.08 17.44C9.33 17.44 8.72 18.05 8.72 18.8V21.49L2.98 38.71C2.84 39.13 2.91 39.58 3.17 39.94C3.43 40.29 3.84 40.51 4.27 40.51H5.82V63.95H1.36C0.61 63.95 0 64.56 0 65.31C0 66.06 0.61 66.67 1.36 66.67H91.46C92.21 66.67 92.82 66.06 92.82 65.31C92.82 64.56 92.21 63.95 91.46 63.95" fill="#1D5082"/>
<path d="M84.2 69.76H8.62999C7.87999 69.76 7.26999 70.37 7.26999 71.12C7.26999 71.87 7.87999 72.48 8.62999 72.48H84.2C84.95 72.48 85.56 71.87 85.56 71.12C85.56 70.37 84.95 69.76 84.2 69.76Z" fill="#1D5082"/>
<path d="M47.96 34.8799H44.87V30.4299C44.87 29.5799 45.56 28.8799 46.42 28.8799C47.28 28.8799 47.97 29.5699 47.97 30.4299V34.8799H47.96ZM46.41 26.1599C44.06 26.1599 42.14 28.0699 42.14 30.4299V36.2399C42.14 36.9899 42.75 37.5999 43.5 37.5999H49.31C50.06 37.5999 50.67 36.9899 50.67 36.2399V30.4299C50.67 28.0799 48.76 26.1599 46.4 26.1599" fill="#1D5082"/>
<path d="M35.61 43.07H32.52V38.62C32.52 37.77 33.21 37.07 34.07 37.07C34.93 37.07 35.62 37.76 35.62 38.62V43.07H35.61ZM34.06 34.35C31.71 34.35 29.79 36.26 29.79 38.62V44.43C29.79 45.18 30.4 45.79 31.15 45.79H36.96C37.71 45.79 38.32 45.18 38.32 44.43V38.62C38.32 36.27 36.41 34.35 34.05 34.35" fill="#1D5082"/>
<path d="M60.18 43.07H57.09V38.62C57.09 37.77 57.78 37.07 58.64 37.07C59.5 37.07 60.19 37.76 60.19 38.62V43.07H60.18ZM58.63 34.35C56.28 34.35 54.36 36.26 54.36 38.62V44.43C54.36 45.18 54.97 45.79 55.72 45.79H61.53C62.28 45.79 62.89 45.18 62.89 44.43V38.62C62.89 36.27 60.98 34.35 58.62 34.35" fill="#1D5082"/>
</g>
<defs>
<clipPath id="clip0_0_170">
<rect width="92.82" height="72.48" fill="white"/>
</clipPath>
</defs>
</svg>
