<svg width="39" height="90" viewBox="0 0 39 90" fill="none" xmlns="http://www.w3.org/2000/svg">
<g clip-path="url(#clip0_0_162)">
<path d="M15.34 0C14.61 0 14.03 0.59 14.03 1.31V25.56C14.03 26.7 13.58 27.78 12.77 28.59C12.26 29.1 12.26 29.93 12.77 30.44C13.03 30.7 13.36 30.82 13.7 30.82C14.04 30.82 14.37 30.69 14.63 30.44C15.94 29.14 16.66 27.4 16.66 25.56V1.31C16.65 0.59 16.06 0 15.34 0Z" fill="#1D5082"/>
<path d="M13.74 83.78L12.5 34.44C12.48 33.72 11.89 33.15 11.16 33.16C10.44 33.18 9.86 33.78 9.88 34.5L11.12 83.84C11.14 84.6 10.86 85.31 10.33 85.85C9.8 86.39 9.09 86.69 8.33 86.69C7.57 86.69 6.86 86.39 6.33 85.85C5.8 85.31 5.52 84.59 5.54 83.84L6.78 34.5C6.83 32.62 6.09 30.78 4.76 29.45L3.9 28.59C3.09 27.78 2.64 26.7 2.64 25.56V1.31C2.62 0.59 2.04 0 1.31 0C0.58 0 0 0.59 0 1.31V25.56C0 27.4 0.72 29.14 2.03 30.44L2.89 31.3C3.72 32.13 4.18 33.27 4.15 34.44L2.91 83.78C2.87 85.25 3.42 86.63 4.45 87.68C5.48 88.73 6.85 89.31 8.33 89.31C9.81 89.31 11.18 88.73 12.21 87.68C13.24 86.63 13.78 85.24 13.75 83.78" fill="#1D5082"/>
<path d="M8.33001 0C7.60001 0 7.01001 0.59 7.01001 1.31V25.08C7.01001 25.8 7.60001 26.39 8.32001 26.39C9.04001 26.39 9.63001 25.8 9.63001 25.08V1.31C9.64001 0.59 9.05001 0 8.33001 0Z" fill="#1D5082"/>
<path d="M38.95 49.9L35.16 4.54C34.95 2 32.77 0 30.21 0C27.47 0 25.25 2.22 25.25 4.95V83.9C25.25 86.89 27.69 89.32 30.68 89.32C32.17 89.32 33.57 88.73 34.6 87.65C35.63 86.58 36.17 85.16 36.11 83.68L35.1 59.44C35.07 58.72 34.46 58.16 33.73 58.19C33.01 58.22 32.44 58.83 32.47 59.55L33.48 83.79C33.51 84.56 33.24 85.29 32.7 85.85C32.17 86.41 31.45 86.71 30.67 86.71C29.12 86.71 27.86 85.45 27.86 83.91V4.95C27.86 3.66 28.91 2.62 30.2 2.62C31.41 2.62 32.43 3.56 32.53 4.76L36.32 50.12C36.36 50.66 36.11 51.18 35.66 51.48L32.83 53.36C32.23 53.76 32.06 54.58 32.47 55.18C32.87 55.78 33.69 55.94 34.29 55.54L37.12 53.66C38.36 52.83 39.06 51.39 38.94 49.9" fill="#1D5082"/>
</g>
<defs>
<clipPath id="clip0_0_162">
<rect width="38.96" height="89.31" fill="white"/>
</clipPath>
</defs>
</svg>
