<svg width="68" height="78" viewBox="0 0 68 78" fill="none" xmlns="http://www.w3.org/2000/svg">
<g clip-path="url(#clip0_0_157)">
<path d="M7.55001 22.7401C6.71001 22.7401 6.02001 23.3901 5.97001 24.2301L3.31001 69.3801C3.23001 70.7201 3.70001 71.9901 4.62001 72.9701C5.54001 73.9501 6.79001 74.4801 8.13001 74.4801H17.06C18.4 74.4801 19.65 73.9401 20.57 72.9701C21.49 71.9901 21.95 70.7201 21.87 69.3801L19.21 24.2301C19.16 23.3901 18.47 22.7401 17.63 22.7401H7.55001ZM17.06 77.8001H8.13001C5.87001 77.8001 3.77001 76.8901 2.21001 75.2501C0.660013 73.6001 -0.119987 71.4501 0.0100127 69.1901L2.67001 24.0401C2.82001 21.4601 4.97001 19.4301 7.56001 19.4301H17.65C20.24 19.4301 22.38 21.4501 22.54 24.0401L25.2 69.1901C25.33 71.4501 24.55 73.6001 23 75.2501C21.45 76.9001 19.35 77.8001 17.08 77.8001H17.06Z" fill="#1D5082"/>
<path d="M59.17 77.7999H14.22V74.4899H59.17C60.51 74.4899 61.76 73.9499 62.68 72.9799C63.6 71.9999 64.06 70.7299 63.98 69.3899L61.5 27.2899C61.35 24.7499 59.24 22.7499 56.68 22.7499H14.22V19.4399H56.69C60.99 19.4399 64.56 22.7999 64.81 27.0999L67.29 69.1999C67.42 71.4599 66.64 73.6099 65.09 75.2599C63.54 76.9099 61.43 77.8099 59.17 77.8099V77.7999Z" fill="#1D5082"/>
<path d="M53.08 32.46C52.17 32.46 51.42 31.72 51.42 30.8V12.99C51.42 7.65 47.08 3.31 41.74 3.31C36.4 3.31 32.06 7.65 32.06 12.99V30.8C32.06 31.71 31.32 32.46 30.41 32.46C29.5 32.46 28.75 31.72 28.75 30.8V12.99C28.75 5.83 34.58 0 41.74 0C48.9 0 54.73 5.83 54.73 12.99V30.8C54.73 31.71 53.99 32.46 53.08 32.46Z" fill="#1D5082"/>
<path d="M17.46 22.74C16.55 22.74 15.8 22 15.8 21.08V11.37C15.8 5.1 20.9 0 27.17 0C28.08 0 28.83 0.74 28.83 1.66C28.83 2.58 28.09 3.32 27.17 3.32C22.73 3.32 19.11 6.94 19.11 11.38V21.1C19.11 22.01 18.37 22.75 17.46 22.75" fill="#1D5082"/>
</g>
<defs>
<clipPath id="clip0_0_157">
<rect width="67.3" height="77.8" fill="white"/>
</clipPath>
</defs>
</svg>
