<svg width="473" height="127" viewBox="0 0 473 127" fill="none" xmlns="http://www.w3.org/2000/svg">
<g clip-path="url(#clip0_0_194)">
<path d="M151.33 119.39C151.33 122.28 153.68 124.63 156.57 124.63C159.46 124.63 161.81 122.28 161.81 119.39" stroke="#1D5082" stroke-width="3" stroke-linecap="round" stroke-linejoin="round"/>
<path d="M161.81 119.39C161.81 122.28 164.16 124.63 167.05 124.63C169.94 124.63 172.29 122.28 172.29 119.39" stroke="#1D5082" stroke-width="3" stroke-linecap="round" stroke-linejoin="round"/>
<path d="M172.28 119.39C172.28 122.28 174.63 124.63 177.52 124.63C180.41 124.63 182.76 122.28 182.76 119.39" stroke="#1D5082" stroke-width="3" stroke-linecap="round" stroke-linejoin="round"/>
<path d="M182.76 119.39C182.76 122.28 185.11 124.63 188 124.63C190.89 124.63 193.24 122.28 193.24 119.39" stroke="#1D5082" stroke-width="3" stroke-linecap="round" stroke-linejoin="round"/>
<path d="M193.24 119.39C193.24 122.28 195.59 124.63 198.48 124.63C201.37 124.63 203.72 122.28 203.72 119.39" stroke="#1D5082" stroke-width="3" stroke-linecap="round" stroke-linejoin="round"/>
<path d="M235.87 119.3C235.87 122.19 238.22 124.54 241.11 124.54C244 124.54 246.35 122.19 246.35 119.3" stroke="#1D5082" stroke-width="3" stroke-linecap="round" stroke-linejoin="round"/>
<path d="M246.35 119.3C246.35 122.19 248.7 124.54 251.59 124.54C254.48 124.54 256.83 122.19 256.83 119.3" stroke="#1D5082" stroke-width="3" stroke-linecap="round" stroke-linejoin="round"/>
<path d="M256.83 119.3C256.83 122.19 259.18 124.54 262.07 124.54C264.96 124.54 267.31 122.19 267.31 119.3" stroke="#1D5082" stroke-width="3" stroke-linecap="round" stroke-linejoin="round"/>
<path d="M267.31 119.3C267.31 122.19 269.66 124.54 272.55 124.54C275.44 124.54 277.79 122.19 277.79 119.3" stroke="#1D5082" stroke-width="3" stroke-linecap="round" stroke-linejoin="round"/>
<path d="M277.78 119.3C277.78 122.19 280.13 124.54 283.02 124.54C285.91 124.54 288.26 122.19 288.26 119.3" stroke="#1D5082" stroke-width="3" stroke-linecap="round" stroke-linejoin="round"/>
<path d="M167.87 41.1201V122.94" stroke="#1D5082" stroke-width="3" stroke-linecap="round" stroke-linejoin="round"/>
<path d="M187.58 41.1201V122.94" stroke="#1D5082" stroke-width="3" stroke-linecap="round" stroke-linejoin="round"/>
<path d="M168.61 52.1802H187.58" stroke="#1D5082" stroke-width="3" stroke-linecap="round" stroke-linejoin="round"/>
<path d="M168.61 68.54H187.58" stroke="#1D5082" stroke-width="3" stroke-linecap="round" stroke-linejoin="round"/>
<path d="M168.61 84.9102H187.58" stroke="#1D5082" stroke-width="3" stroke-linecap="round" stroke-linejoin="round"/>
<path d="M251.94 41.1201V122.94" stroke="#1D5082" stroke-width="3" stroke-linecap="round" stroke-linejoin="round"/>
<path d="M271.64 41.1201V122.94" stroke="#1D5082" stroke-width="3" stroke-linecap="round" stroke-linejoin="round"/>
<path d="M252.68 52.1802H271.64" stroke="#1D5082" stroke-width="3" stroke-linecap="round" stroke-linejoin="round"/>
<path d="M252.68 68.54H271.64" stroke="#1D5082" stroke-width="3" stroke-linecap="round" stroke-linejoin="round"/>
<path d="M252.68 84.9102H271.64" stroke="#1D5082" stroke-width="3" stroke-linecap="round" stroke-linejoin="round"/>
<path d="M283.62 102.34H152.55C150.67 102.34 149.14 100.81 149.14 98.93C149.14 97.05 150.67 95.52 152.55 95.52H283.62C285.5 95.52 287.03 97.05 287.03 98.93C287.03 100.81 285.5 102.34 283.62 102.34Z" stroke="#1D5082" stroke-width="3" stroke-linecap="round" stroke-linejoin="round"/>
<path d="M167.87 42.5901C167.87 42.5901 203.04 94.1501 251.94 43.8401" stroke="#1D5082" stroke-width="3" stroke-linecap="round" stroke-linejoin="round"/>
<path d="M187.94 43.8501C187.94 43.8501 221.25 91.2701 271.65 43.3901" stroke="#1D5082" stroke-width="3" stroke-linecap="round" stroke-linejoin="round"/>
<path d="M167.01 111.72H118.37V85.5901H107.47V122.94H100.28V48.0901H86.78V65.1301H76.04V48.0901H60.62V102.18H22.71" stroke="#1D5082" stroke-width="3" stroke-linecap="round" stroke-linejoin="round"/>
<path d="M1.5 101.81H17.71" stroke="#1D5082" stroke-width="3" stroke-linecap="round" stroke-linejoin="round"/>
<path d="M131.56 93.3401V111.65" stroke="#1D5082" stroke-width="2" stroke-linecap="round" stroke-linejoin="round"/>
<path d="M123.99 96.5799C123.99 93.8399 127.38 91.6299 131.56 91.6299C135.74 91.6299 139.13 93.8499 139.13 96.5799" stroke="#1D5082" stroke-width="2" stroke-linecap="round" stroke-linejoin="round"/>
<path d="M122.71 89.28C124.64 87.35 128.61 88.17 131.57 91.13" stroke="#1D5082" stroke-width="2" stroke-linecap="round" stroke-linejoin="round"/>
<path d="M140.42 89.28C138.49 87.35 134.52 88.17 131.56 91.13" stroke="#1D5082" stroke-width="2" stroke-linecap="round" stroke-linejoin="round"/>
<path d="M131.56 84.5V89.68" stroke="#1D5082" stroke-width="2" stroke-linecap="round" stroke-linejoin="round"/>
<path d="M143.99 79.77V111.29" stroke="#1D5082" stroke-width="2" stroke-linecap="round" stroke-linejoin="round"/>
<path d="M136.42 83C136.42 80.26 139.81 78.05 143.99 78.05C148.17 78.05 151.56 80.27 151.56 83" stroke="#1D5082" stroke-width="2" stroke-linecap="round" stroke-linejoin="round"/>
<path d="M135.13 75.6999C137.06 73.7599 141.03 74.5899 143.99 77.5499" stroke="#1D5082" stroke-width="2" stroke-linecap="round" stroke-linejoin="round"/>
<path d="M152.84 75.6999C150.91 73.7599 146.94 74.5899 143.98 77.5499" stroke="#1D5082" stroke-width="2" stroke-linecap="round" stroke-linejoin="round"/>
<path d="M143.99 70.9299V76.0999" stroke="#1D5082" stroke-width="2" stroke-linecap="round" stroke-linejoin="round"/>
<path d="M291.07 81.02V112.54" stroke="#1D5082" stroke-width="2" stroke-linecap="round" stroke-linejoin="round"/>
<path d="M283.5 84.2598C283.5 81.5198 286.89 79.3098 291.07 79.3098C295.25 79.3098 298.64 81.5298 298.64 84.2598" stroke="#1D5082" stroke-width="2" stroke-linecap="round" stroke-linejoin="round"/>
<path d="M282.21 76.9599C284.14 75.0299 288.11 75.8499 291.07 78.8099" stroke="#1D5082" stroke-width="2" stroke-linecap="round" stroke-linejoin="round"/>
<path d="M299.92 76.9599C297.99 75.0299 294.02 75.8499 291.06 78.8099" stroke="#1D5082" stroke-width="2" stroke-linecap="round" stroke-linejoin="round"/>
<path d="M291.07 72.1799V77.3599" stroke="#1D5082" stroke-width="2" stroke-linecap="round" stroke-linejoin="round"/>
<path d="M92.59 73.3201V110.81" stroke="#1D5082" stroke-width="3" stroke-linecap="round" stroke-linejoin="round"/>
<path d="M81.95 73.3201V95.3601" stroke="#1D5082" stroke-width="3" stroke-linecap="round" stroke-linejoin="round"/>
<path d="M305.58 113.09V84.15H376.2V62.27H368.58V47.33H379.8V19.99H438.63V47.33H449.85V62.27H442.23V84.15H449.85V113.09H460.85" stroke="#1D5082" stroke-width="3" stroke-linecap="round" stroke-linejoin="round"/>
<path d="M386.93 50.01V59.68" stroke="#1D5082" stroke-width="3" stroke-linecap="round" stroke-linejoin="round"/>
<path d="M397.4 50.01V59.68" stroke="#1D5082" stroke-width="3" stroke-linecap="round" stroke-linejoin="round"/>
<path d="M407.88 50.01V59.68" stroke="#1D5082" stroke-width="3" stroke-linecap="round" stroke-linejoin="round"/>
<path d="M418.36 50.01V59.68" stroke="#1D5082" stroke-width="3" stroke-linecap="round" stroke-linejoin="round"/>
<path d="M428.84 50.01V59.68" stroke="#1D5082" stroke-width="3" stroke-linecap="round" stroke-linejoin="round"/>
<path d="M386.93 9.73999V19.4" stroke="#1D5082" stroke-width="3" stroke-linecap="round" stroke-linejoin="round"/>
<path d="M397.4 9.73999V19.4" stroke="#1D5082" stroke-width="3" stroke-linecap="round" stroke-linejoin="round"/>
<path d="M407.88 9.73999V19.4" stroke="#1D5082" stroke-width="3" stroke-linecap="round" stroke-linejoin="round"/>
<path d="M418.36 9.73999V19.4" stroke="#1D5082" stroke-width="3" stroke-linecap="round" stroke-linejoin="round"/>
<path d="M428.84 9.73999V19.4" stroke="#1D5082" stroke-width="3" stroke-linecap="round" stroke-linejoin="round"/>
<path d="M325.94 74.0701V83.7401" stroke="#1D5082" stroke-width="3" stroke-linecap="round" stroke-linejoin="round"/>
<path d="M336.42 74.0701V83.7401" stroke="#1D5082" stroke-width="3" stroke-linecap="round" stroke-linejoin="round"/>
<path d="M346.89 74.0701V83.7401" stroke="#1D5082" stroke-width="3" stroke-linecap="round" stroke-linejoin="round"/>
<path d="M357.37 74.0701V83.7401" stroke="#1D5082" stroke-width="3" stroke-linecap="round" stroke-linejoin="round"/>
<path d="M367.85 74.0701V83.7401" stroke="#1D5082" stroke-width="3" stroke-linecap="round" stroke-linejoin="round"/>
<path d="M305.58 74.0701V83.7401" stroke="#1D5082" stroke-width="3" stroke-linecap="round" stroke-linejoin="round"/>
<path d="M316.06 74.0701V83.7401" stroke="#1D5082" stroke-width="3" stroke-linecap="round" stroke-linejoin="round"/>
<path d="M445.56 9.73999H438.81V47.38H445.56V9.73999Z" stroke="#1D5082" stroke-width="3" stroke-linecap="round" stroke-linejoin="round"/>
<path d="M379.82 9.73999H373.07V47.38H379.82V9.73999Z" stroke="#1D5082" stroke-width="3" stroke-linecap="round" stroke-linejoin="round"/>
<path d="M442.19 9.74V1.5" stroke="#1D5082" stroke-width="3" stroke-linecap="round" stroke-linejoin="round"/>
<path d="M375.63 9.74V1.5" stroke="#1D5082" stroke-width="3" stroke-linecap="round" stroke-linejoin="round"/>
<path d="M383.82 84.1499H435.86" stroke="#1D5082" stroke-width="3" stroke-linecap="round" stroke-linejoin="round"/>
<path d="M399.09 37.9101V34.0301C399.09 31.1701 396.77 28.8601 393.92 28.8601C391.06 28.8601 388.75 31.1801 388.75 34.0301V37.9101H399.09Z" stroke="#1D5082" stroke-width="3" stroke-linecap="round" stroke-linejoin="round"/>
<path d="M414.87 37.9101V34.0301C414.87 31.1701 412.55 28.8601 409.7 28.8601C406.84 28.8601 404.53 31.1801 404.53 34.0301V37.9101H414.87Z" stroke="#1D5082" stroke-width="3" stroke-linecap="round" stroke-linejoin="round"/>
<path d="M416.36 113.09V100.21C416.36 97.35 414.04 95.04 411.19 95.04C408.33 95.04 406.02 97.36 406.02 100.21V113.09H416.36Z" stroke="#1D5082" stroke-width="3" stroke-linecap="round" stroke-linejoin="round"/>
<path d="M430.66 37.9101V34.0301C430.66 31.1701 428.34 28.8601 425.49 28.8601C422.63 28.8601 420.32 31.1801 420.32 34.0301V37.9101H430.66Z" stroke="#1D5082" stroke-width="3" stroke-linecap="round" stroke-linejoin="round"/>
<path d="M467.85 113.09H470.8" stroke="#1D5082" stroke-width="3" stroke-linecap="round" stroke-linejoin="round"/>
<path d="M271.64 113.09H377.79V105.43" stroke="#1D5082" stroke-width="3" stroke-linecap="round" stroke-linejoin="round"/>
</g>
<defs>
<clipPath id="clip0_0_194">
<rect width="472.3" height="126.13" fill="white"/>
</clipPath>
</defs>
</svg>
