<svg width="133" height="132" viewBox="0 0 23 20" fill="none" xmlns="http://www.w3.org/2000/svg">
<g style="mix-blend-mode:overlay">
<path d="M13.0823 19.7735C13.0823 19.6706 13.0825 19.5805 13.0823 19.4904C13.0806 18.9626 13.0793 18.4347 13.0823 17.9068C13.0842 17.557 13.0971 17.2072 13.0981 16.8575C13.0988 16.6117 13.089 16.3672 13.0809 16.1222C13.0764 15.9876 13.1225 15.8783 13.2103 15.7755C14.164 14.6574 15.116 13.538 16.0665 12.4171C16.1779 12.2861 16.2849 12.1508 16.4004 12.024C16.492 11.9239 16.4904 11.8328 16.4235 11.7182C16.0966 11.156 15.7796 10.588 15.4524 10.0261C15.2886 9.7434 15.1111 9.46735 14.9361 9.19104C14.7949 8.96864 14.5811 8.85451 14.326 8.82352C14.1723 8.80639 14.0177 8.79846 13.863 8.79977C12.516 8.79977 11.1693 8.80091 9.82285 8.80318C9.51363 8.80318 9.20441 8.80646 8.89451 8.80318C8.4713 8.79786 8.15211 8.96701 7.93737 9.33984C7.51088 10.0807 7.07579 10.8167 6.64616 11.5558C6.61271 11.6134 6.58284 11.6731 6.55278 11.7348C6.50941 11.8238 6.51697 11.9325 6.58063 12.0083C7.15948 12.6983 7.73851 13.3883 8.31771 14.0782C8.61888 14.4372 8.91663 14.7991 9.22025 15.1567C9.41138 15.3818 9.60947 15.6019 9.80824 15.8207C9.84129 15.8551 9.86699 15.8958 9.88378 15.9404C9.90056 15.985 9.90807 16.0325 9.90585 16.0801C9.89752 16.4711 9.89329 16.8622 9.89002 17.2532C9.88933 17.3351 9.90367 17.4164 9.90367 17.4979C9.90476 18.1805 9.90476 18.8631 9.90367 19.5457C9.90367 19.6174 9.89439 19.6892 9.88811 19.7805H9.67636C8.11566 19.7805 6.55483 19.7846 4.99372 19.7783C4.3802 19.7759 3.77746 19.6954 3.21718 19.4193C2.43001 19.0311 1.79983 18.4728 1.3571 17.7085C1.13361 17.323 1.00529 16.9058 0.889107 16.4778C0.77989 16.0778 0.845286 15.683 0.843374 15.2858C0.841463 14.8965 0.971974 14.535 1.10071 14.1755C1.15924 14.0146 1.23207 13.8593 1.31833 13.7114C2.52926 11.6169 3.75316 9.52988 4.95345 7.42938C5.85584 5.84998 6.78896 4.28846 7.68494 2.70578C7.81477 2.47629 7.93423 2.2397 8.08085 2.021C8.6612 1.15273 9.4597 0.582212 10.4734 0.328148C10.7313 0.263574 11.0035 0.248148 11.2705 0.229308C12.4528 0.145894 13.47 0.53129 14.3333 1.33307C14.6185 1.59792 14.8479 1.90878 15.0415 2.24653C15.2247 2.56612 15.4128 2.88271 15.5959 3.20217C15.6976 3.37965 15.7897 3.56258 15.8921 3.73951C16.1314 4.15276 16.3768 4.56246 16.6157 4.97598C17.0475 5.72438 17.4737 6.47592 17.9069 7.22351C18.3354 7.96317 18.7712 8.69793 19.2004 9.43787C19.28 9.57438 19.3431 9.72155 19.4135 9.86394C19.4197 9.87609 19.4221 9.89016 19.4289 9.90176C19.5596 10.1246 19.6906 10.3472 19.8219 10.5696C19.8543 10.6242 19.8954 10.6742 19.9255 10.73C20.3163 11.4543 20.7668 12.1438 21.1659 12.8633C21.2916 13.0898 21.435 13.3064 21.5618 13.5322C21.8054 13.9665 21.9987 14.4196 22.0847 14.9155C22.1372 15.221 22.1899 15.5248 22.1655 15.8359C22.0862 16.8416 21.749 17.7425 21.0508 18.4844C20.4032 19.1726 19.6072 19.595 18.6698 19.7379C18.5124 19.762 18.3535 19.7744 18.1943 19.775C16.5335 19.7786 14.8728 19.78 13.212 19.7794C13.1812 19.7789 13.1326 19.7759 13.0823 19.7735Z" fill="url(#paint0_linear_269_360)"/>
</g>
<path opacity="0.2" d="M13.0823 19.7735C13.0823 19.6706 13.0825 19.5805 13.0823 19.4904C13.0806 18.9626 13.0793 18.4347 13.0823 17.9068C13.0842 17.557 13.0971 17.2072 13.0981 16.8575C13.0988 16.6117 13.089 16.3672 13.0809 16.1222C13.0764 15.9876 13.1225 15.8783 13.2103 15.7755C14.164 14.6574 15.116 13.538 16.0665 12.4171C16.1779 12.2861 16.2849 12.1508 16.4004 12.024C16.492 11.9239 16.4904 11.8328 16.4235 11.7182C16.0966 11.156 15.7796 10.588 15.4524 10.0261C15.2886 9.7434 15.1111 9.46735 14.9361 9.19104C14.7949 8.96864 14.5811 8.85451 14.326 8.82352C14.1723 8.80639 14.0177 8.79846 13.863 8.79977C12.516 8.79977 11.1693 8.80091 9.82285 8.80318C9.51363 8.80318 9.20441 8.80646 8.89451 8.80318C8.4713 8.79786 8.15211 8.96701 7.93737 9.33984C7.51088 10.0807 7.07579 10.8167 6.64616 11.5558C6.61271 11.6134 6.58284 11.6731 6.55278 11.7348C6.50941 11.8238 6.51697 11.9325 6.58063 12.0083C7.15948 12.6983 7.73851 13.3883 8.31771 14.0782C8.61888 14.4372 8.91663 14.7991 9.22025 15.1567C9.41138 15.3818 9.60947 15.6019 9.80824 15.8207C9.84129 15.8551 9.86699 15.8958 9.88378 15.9404C9.90056 15.985 9.90807 16.0325 9.90585 16.0801C9.89752 16.4711 9.89329 16.8622 9.89002 17.2532C9.88933 17.3351 9.90367 17.4164 9.90367 17.4979C9.90476 18.1805 9.90476 18.8631 9.90367 19.5457C9.90367 19.6174 9.89439 19.6892 9.88811 19.7805H9.67636C8.11566 19.7805 6.55483 19.7846 4.99372 19.7783C4.3802 19.7759 3.77746 19.6954 3.21718 19.4193C2.43001 19.0311 1.79983 18.4728 1.3571 17.7085C1.13361 17.323 1.00529 16.9058 0.889107 16.4778C0.77989 16.0778 0.845286 15.683 0.843374 15.2858C0.841463 14.8965 0.971974 14.535 1.10071 14.1755C1.15924 14.0146 1.23207 13.8593 1.31833 13.7114C2.52926 11.6169 3.75316 9.52988 4.95345 7.42938C5.85584 5.84998 6.78896 4.28846 7.68494 2.70578C7.81477 2.47629 7.93423 2.2397 8.08085 2.021C8.6612 1.15273 9.4597 0.582212 10.4734 0.328148C10.7313 0.263574 11.0035 0.248148 11.2705 0.229308C12.4528 0.145894 13.47 0.53129 14.3333 1.33307C14.6185 1.59792 14.8479 1.90878 15.0415 2.24653C15.2247 2.56612 15.4128 2.88271 15.5959 3.20217C15.6976 3.37965 15.7897 3.56258 15.8921 3.73951C16.1314 4.15276 16.3768 4.56246 16.6157 4.97598C17.0475 5.72438 17.4737 6.47592 17.9069 7.22351C18.3354 7.96317 18.7712 8.69793 19.2004 9.43787C19.28 9.57438 19.3431 9.72155 19.4135 9.86394C19.4197 9.87609 19.4221 9.89016 19.4289 9.90176C19.5596 10.1246 19.6906 10.3472 19.8219 10.5696C19.8543 10.6242 19.8954 10.6742 19.9255 10.73C20.3163 11.4543 20.7668 12.1438 21.1659 12.8633C21.2916 13.0898 21.435 13.3064 21.5618 13.5322C21.8054 13.9665 21.9987 14.4196 22.0847 14.9155C22.1372 15.221 22.1899 15.5248 22.1655 15.8359C22.0862 16.8416 21.749 17.7425 21.0508 18.4844C20.4032 19.1726 19.6072 19.595 18.6698 19.7379C18.5124 19.762 18.3535 19.7744 18.1943 19.775C16.5335 19.7786 14.8728 19.78 13.212 19.7794C13.1812 19.7789 13.1326 19.7759 13.0823 19.7735Z" fill="url(#paint1_linear_269_360)"/>
<defs>
<linearGradient id="paint0_linear_269_360" x1="5.30344" y1="-1.24706" x2="24.2327" y2="23.3554" gradientUnits="userSpaceOnUse">
<stop stop-color="#D181E4"/>
<stop offset="0.336458" stop-color="#DD56FF"/>
<stop offset="0.961458" stop-color="#6322A5"/>
</linearGradient>
<linearGradient id="paint1_linear_269_360" x1="5.30344" y1="-1.24706" x2="24.2327" y2="23.3554" gradientUnits="userSpaceOnUse">
<stop stop-color="#D181E4"/>
<stop offset="0.336458" stop-color="#DD56FF"/>
<stop offset="0.961458" stop-color="#6322A5"/>
</linearGradient>
</defs>
</svg>
